<?xml version="1.0" standalone="no"?>
<!DOCTYPE svg PUBLIC "-//W3C//DTD SVG 20010904//EN"
 "http://www.w3.org/TR/2001/REC-SVG-20010904/DTD/svg10.dtd">
<svg version="1.0" xmlns="http://www.w3.org/2000/svg"
 width="380.000000pt" height="380.000000pt" viewBox="0 0 380.000000 380.000000"
 preserveAspectRatio="xMidYMid meet">
<metadata>
Created by potrace 1.11, written by Peter Selinger 2001-2013
</metadata>
<g transform="translate(0.000000,380.000000) scale(0.100000,-0.100000)"
fill="#000000" stroke="none">
<path d="M868 3005 c-2 -2 -21 -5 -43 -8 -223 -32 -318 -219 -187 -368 29 -33
49 -45 158 -95 l42 -19 -89 -204 c-49 -112 -91 -207 -94 -210 -3 -3 -50 -7
-103 -9 -252 -10 -427 -157 -423 -356 4 -205 285 -375 550 -332 49 8 127 41
186 78 73 46 75 46 203 -27 64 -37 137 -79 162 -93 45 -25 323 -184 327 -186
1 -1 -4 -26 -12 -57 -41 -180 65 -376 270 -496 105 -62 199 -88 315 -86 52 1
102 4 110 6 141 37 227 92 282 182 68 111 58 248 -29 389 l-36 59 29 24 c27
22 157 118 207 153 12 8 65 47 117 86 52 38 100 73 106 77 6 3 49 -12 94 -34
108 -53 148 -67 218 -75 253 -31 435 73 434 247 -1 131 -125 271 -325 368
-107 52 -192 73 -292 73 -74 0 -81 2 -102 27 -12 14 -92 110 -177 212 l-154
187 41 18 c92 39 138 92 141 163 6 102 -122 210 -329 277 -217 70 -423 2 -455
-151 l-6 -30 -332 0 -333 0 -26 40 c-53 82 -149 137 -283 162 -28 5 -158 11
-162 8z m1169 -299 c11 -14 27 -33 35 -44 7 -10 33 -33 58 -51 86 -62 191 -98
315 -107 44 -4 80 -7 81 -8 0 0 72 -91 160 -200 87 -110 165 -208 172 -217 11
-16 8 -20 -22 -34 -57 -27 -113 -113 -120 -183 -5 -53 23 -128 75 -202 25 -35
39 -64 33 -69 -5 -5 -85 -62 -179 -127 -93 -65 -191 -135 -216 -156 -53 -43
-70 -46 -107 -20 -91 64 -250 114 -362 114 -123 1 -185 -19 -279 -91 -30 -22
-60 -41 -68 -41 -7 0 -28 9 -47 20 -20 10 -66 36 -103 56 -37 20 -111 60 -163
89 -52 28 -135 73 -185 100 -49 26 -95 53 -102 59 -10 9 -8 24 7 73 11 37 17
80 15 108 -9 118 -121 242 -257 288 -17 6 -9 33 52 172 5 11 31 76 58 145 l50
125 74 3 c149 7 261 67 306 164 l27 57 55 3 c30 2 181 2 335 1 l280 -2 22 -25z"/>
</g>
</svg>
